<svg id="Layer_1" data-name="Layer 1" xmlns="http://www.w3.org/2000/svg" viewBox="0 0 146.67 400"><defs><style>.cls-1{fill:#f3f6f8;}</style></defs><title>arrow</title><path class="cls-1" d="M23.08,301.86l6.45-6a1.91,1.91,0,0,1,2.7.09l39.7,42.72a1.92,1.92,0,0,0,2.8,0l39.7-42.72a1.92,1.92,0,0,1,2.71-.09l6.45,6a1.91,1.91,0,0,1,.1,2.7l-49,52.65a1.92,1.92,0,0,1-2.8,0L23,304.56A1.9,1.9,0,0,1,23.08,301.86Z"/><circle class="cls-1" cx="73.33" cy="49.6" r="8.69"/><circle class="cls-1" cx="73.33" cy="95.7" r="8.69"/><circle class="cls-1" cx="73.33" cy="141.8" r="8.69"/><circle class="cls-1" cx="73.33" cy="187.9" r="8.69"/><circle class="cls-1" cx="73.33" cy="234" r="8.69"/><circle class="cls-1" cx="73.33" cy="280.1" r="8.69"/></svg>