<svg id="Layer_1" data-name="Layer 1" xmlns="http://www.w3.org/2000/svg" viewBox="0 0 200 200"><defs><style>.cls-1{fill:#5c6cc8;}.cls-2{fill:#252d3f;}</style></defs><title>icon2</title><g id="Graphical"><path class="cls-1" d="M102.79,76.82l30,15.31a35.47,35.47,0,0,0-30-49Z"/><path class="cls-2" d="M122.37,92.78A26.53,26.53,0,1,1,97.28,52.15v-8l-.08-.93a35.48,35.48,0,1,0,33,53.93L129,96.32Z"/><path class="cls-2" d="M191.29,12.55h-84.9c0-2.18,0-4.17-.07-6.27a7.35,7.35,0,0,0-2.25-4.89A6.42,6.42,0,0,0,100.32.22h-.66a6.4,6.4,0,0,0-3.73,1.17,7.17,7.17,0,0,0-2.25,4.89c-.11,2.1-.07,4.09-.07,6.27H8.71a5.82,5.82,0,0,0,.22,11.64c.73,0,1.55,0,2.5,0h1.11v30c.05,20.58.08,49.24-.07,70.11a20.18,20.18,0,0,0,5.81,14.49,19.52,19.52,0,0,0,14,5.8l48.8-.11c0,1.88,0,7.13-.12,8.9v.07a5.52,5.52,0,0,0-4.68,5.4v.33a6.11,6.11,0,0,0,.11,1.36,4.59,4.59,0,0,0,3.77,3.7,5.66,5.66,0,0,0,1.62.22h5c0,.05,0,.07-.07.12-.49.55-.82.95-1.19,1.33L74,177.5c-3.78,3.76-7.58,7.61-11.42,11.41-3.06,3.1-3.47,6.73-1,9.24a5.33,5.33,0,0,0,3.81,1.63,7.94,7.94,0,0,0,5.42-2.62l2-2c8-8,16.21-16.22,24.26-24.34a20.23,20.23,0,0,0,2.18-2.56c.14-.15.26-.29.38-.44a.56.56,0,0,1,.14.1l.15-.08.15.08a.42.42,0,0,1,.14-.1,4.8,4.8,0,0,0,.37.44,22,22,0,0,0,2.18,2.56c8.06,8.12,16.29,16.36,24.27,24.34l2,2a8,8,0,0,0,5.44,2.62,5.4,5.4,0,0,0,3.81-1.63c2.5-2.51,2.1-6.14-1-9.24-3.85-3.8-7.65-7.65-11.42-11.41L114.43,166c-.36-.38-.7-.78-1.17-1.33,0-.05-.07-.07-.07-.12h5a5.71,5.71,0,0,0,1.62-.22,4.59,4.59,0,0,0,3.76-3.7,5.61,5.61,0,0,0,.12-1.36v-.33a5.53,5.53,0,0,0-4.7-5.4v-.07c-.14-1.77-.14-7-.11-8.9l48.81.11a19.54,19.54,0,0,0,14-5.8,20,20,0,0,0,5.79-14.49c-.14-20.87-.1-49.53-.07-70.11v-30h1.11c1,0,1.77,0,2.52,0a5.92,5.92,0,0,0,5.76-5.91A5.93,5.93,0,0,0,191.29,12.55ZM175.73,126c0,4.47-2.47,6.9-6.93,6.9H31.21c-4.48,0-6.95-2.43-6.95-6.9V24.31H175.73Z"/></g></svg>