<svg id="Layer_1" data-name="Layer 1" xmlns="http://www.w3.org/2000/svg" viewBox="0 0 200 200"><defs><style>.cls-1{fill:#252d3f;}.cls-2{fill:#5c6cc8;}</style></defs><title>icon1</title><path class="cls-1" d="M87.07,23.22A27.19,27.19,0,0,0,90.59,34h0a15.82,15.82,0,0,0,4,4.49,8.19,8.19,0,0,0,5.09,1.86,7.3,7.3,0,0,0,.94-.06,8.11,8.11,0,0,0,5.72-2.88,15.93,15.93,0,0,0,3.07-5.14,27.2,27.2,0,0,0,1.5-11.2l0-.43a10.46,10.46,0,0,0-.14-1.24,9.88,9.88,0,0,0-7.3-8.12,15.41,15.41,0,0,0-5.49-.51,15.26,15.26,0,0,0-5.27,1.49,9.89,9.89,0,0,0-5.7,9.32A10.67,10.67,0,0,0,87,22.79Z"/><path class="cls-1" d="M72.25,87.72a5.07,5.07,0,0,0,2.87.89h0a3.93,3.93,0,0,0,4-3.41c.15-.44.32-1,.51-1.72,1.1-3.82,3.41-11.77,4-13.7,1-.82,2.92-2.38,4.23-3.35l.45,1.23a25.63,25.63,0,0,1,1.29,4.15A20.73,20.73,0,0,1,89.21,79a37.32,37.32,0,0,0-.62,5A17.55,17.55,0,0,0,96.3,99.31c7.35,5,18.34,12.21,19.8,13.06a2.41,2.41,0,0,1,.37.25c.58.83,3.56,5.21,3.56,5.21l13.1,19.23a5,5,0,0,0,4.15,2.19,5.22,5.22,0,0,0,2.4-.59l.66-.38a5,5,0,0,0,2.25-6.28l-10.78-26.17a8.73,8.73,0,0,0-2.07-3l-.73-.67c-3.68-3.38-12.32-11.3-16-15a2.21,2.21,0,0,1-.32-1.24c.09-3.77.3-7.8.65-12.68.1-1.39.26-2.81.43-4.19,2.83,2.6,8,7.14,10,7.82,2.47.84,4.84-.81,6.41-2.12l2.6-2.24c2.91-2.53,7.31-6.34,9-7.72a5,5,0,0,0,1.21-7l-.29-.41a5,5,0,0,0-7-1.23l-9.84,6.89c-3-3.81-6.3-7.4-9.55-10.89q-1.71-1.83-3.37-3.64c-4.53-5-13.09-6.54-19.48-3.56C88,47.64,76.05,59.11,74.35,61.13a11.31,11.31,0,0,0-2.58,5c-.37,1-2,15.75-2,15.83C69.69,85.28,71.09,86.94,72.25,87.72Z"/><path class="cls-1" d="M111.86,114.08l-4.48-2.89-14-9.31-.22,2.49c-.52,5.85-1.23,12.92-1.76,16.25l-28.55,1.77a5,5,0,0,0-.66,9.89l30,5.94,1,0,3,.1h.4a8.89,8.89,0,0,0,2-.23,8,8,0,0,0,5.62-5l1.47-3.49c.88-2.1,2-4.67,3-7.17.44-1.06.85-2.1,1.24-3.11h0l.06-.15.6-1.54.51-1.34a2.17,2.17,0,0,0,.07-.24Z"/><rect class="cls-2" x="2.97" y="152.39" width="24.35" height="24.35" rx="8.06" ry="8.06" transform="translate(120.8 37.49) rotate(45)"/><rect class="cls-2" x="172.97" y="152.39" width="24.35" height="24.35" rx="8.06" ry="8.06" transform="translate(170.6 -82.72) rotate(45)"/><circle class="cls-2" cx="51.4" cy="165.19" r="7.07"/><circle class="cls-2" cx="83.72" cy="165.19" r="7.07"/><circle class="cls-2" cx="116.05" cy="165.19" r="7.07"/><circle class="cls-2" cx="148.37" cy="165.19" r="7.07"/></svg>