<svg id="Layer_1" data-name="Layer 1" xmlns="http://www.w3.org/2000/svg" viewBox="0 0 200 200"><defs><style>.cls-1{fill:#252d3f;}.cls-2{fill:#5c6cc8;}</style></defs><title>icon3</title><g id="Checklist"><path class="cls-1" d="M8.5,88.6H63.9V33.2H8.5ZM18.66,43.37H53.73V78.44H18.66Z"/><path class="cls-1" d="M144.42,33.2H89V88.6h55.39ZM134.26,78.44H99.19V43.37h35.07Z"/><path class="cls-1" d="M8.5,165.22H63.9v-55.4H8.5ZM18.66,120H53.73v35.08H18.66Z"/><path class="cls-2" d="M134.91,122.14c-1-.81-2-1.57-3-2.28,2.16-.65,4.37-1.24,6.66-1.78a5.08,5.08,0,1,0-2.34-9.89,113.58,113.58,0,0,0-17,5.4c-8.51-3-17.7-4.32-26.21-5.34a5.08,5.08,0,0,0-1.2,10.09c4.45.53,9,1.13,13.33,2a48.07,48.07,0,0,0-8.82,6c-6.83,6.09-9.66,14.24-7.56,21.83,2.18,7.83,8.83,14,18.26,17A39.91,39.91,0,0,0,118.88,167c7.62,0,14.86-2.2,19.84-6.34,5.71-4.74,8.5-12.9,7.12-20.78A30.13,30.13,0,0,0,134.91,122.14Zm-2.68,30.7c-4.87,4-14.23,5.16-22.24,2.65-6.07-1.9-10.27-5.55-11.5-10C97,140.07,101.15,135.62,103,134c3.88-3.47,9.22-6,14.39-8.44l1.41-.67.6-.29a38.2,38.2,0,0,1,9.05,5.42,20,20,0,0,1,7.37,11.65C136.58,145.93,135.14,150.43,132.23,152.84Z"/><path class="cls-2" d="M166,53.48q-.15,41.22-.24,82.41a10,10,0,0,0,.5,3.12q4.58,13.78,9.24,27.52a8.33,8.33,0,0,0,1,2,1.24,1.24,0,0,0,2.3,0,10.55,10.55,0,0,0,1-2.28c2.66-7.67,5.33-15.34,7.93-23.05.94-2.77,2-5.45,2-8.64,0-26.77.13-53.52.2-80.29a8.6,8.6,0,0,0,0-.89c-8,0-15.93-.07-23.88-.12A1.63,1.63,0,0,0,166,53.48Zm18.9,83.06c-.16.5-.34,1.06-.53,1.62-1.29,3.78-2.61,7.56-3.88,11.38-.27.82-.65,1.13-1.4,1.08-1.08-.07-2.16,0-3.24-.07a1.18,1.18,0,0,1-.87-.64c-1.5-4.35-3-8.72-4.41-13.11,0-.14,0-.3,0-.35C175.32,136.47,180.06,136.52,184.93,136.54Z"/><path class="cls-2" d="M190,46.69l-23.84-.11c0-.15-.07-.38-.07-.61,0-3,0-6,0-9.06,0-3.63,2-6,5-6q6.92,0,13.81.05c3.06.05,5,2.43,5.05,6C190,40.21,190,43.44,190,46.69Z"/></g></svg>