<svg id="Layer_1" data-name="Layer 1" xmlns="http://www.w3.org/2000/svg" xmlns:xlink="http://www.w3.org/1999/xlink" viewBox="0 0 200 200"><defs><style>.cls-1{fill:url(#linear-gradient);}.cls-2{fill:url(#linear-gradient-2);}.cls-3{opacity:0.75;}.cls-4{fill:#fff;}.cls-5{fill:url(#linear-gradient-3);}.cls-6{fill:url(#linear-gradient-4);}.cls-7{fill:url(#linear-gradient-5);}.cls-8{fill:url(#linear-gradient-6);}.cls-9{fill:url(#linear-gradient-7);}.cls-10{fill:url(#linear-gradient-8);}.cls-11{fill:url(#linear-gradient-9);}.cls-12{fill:url(#linear-gradient-10);}</style><linearGradient id="linear-gradient" y1="100" x2="200" y2="100" gradientUnits="userSpaceOnUse"><stop offset="0" stop-color="#9597b0"/><stop offset="0.43" stop-color="#c4c7d4"/><stop offset="0.8" stop-color="#e6e9ee"/><stop offset="1" stop-color="#f3f6f8"/></linearGradient><linearGradient id="linear-gradient-2" x1="12.86" y1="100" x2="187.14" y2="100" gradientUnits="userSpaceOnUse"><stop offset="0" stop-color="#f3f6f8"/><stop offset="0.2" stop-color="#e6e9ee"/><stop offset="0.56" stop-color="#c5c7d5"/><stop offset="1" stop-color="#9597b0"/></linearGradient><linearGradient id="linear-gradient-3" x1="122.13" y1="123.08" x2="158.55" y2="60" gradientUnits="userSpaceOnUse"><stop offset="0" stop-color="#fbc091"/><stop offset="1" stop-color="#ef5587"/></linearGradient><linearGradient id="linear-gradient-4" x1="138.46" y1="53.62" x2="147.31" y2="38.29" xlink:href="#linear-gradient-3"/><linearGradient id="linear-gradient-5" x1="72.23" y1="88.58" x2="96.3" y2="46.88" xlink:href="#linear-gradient-3"/><linearGradient id="linear-gradient-6" x1="51.29" y1="103.94" x2="61.4" y2="86.42" xlink:href="#linear-gradient-3"/><linearGradient id="linear-gradient-7" x1="92.83" y1="108.89" x2="108.67" y2="81.47" xlink:href="#linear-gradient-3"/><linearGradient id="linear-gradient-8" x1="72.23" y1="143.49" x2="96.3" y2="101.8" xlink:href="#linear-gradient-3"/><linearGradient id="linear-gradient-9" x1="105.42" y1="168.97" x2="127.21" y2="131.24" xlink:href="#linear-gradient-3"/><linearGradient id="linear-gradient-10" x1="51.12" y1="158.77" x2="61.12" y2="141.45" xlink:href="#linear-gradient-3"/></defs><title>icon4</title><circle class="cls-1" cx="100" cy="100" r="100"/><circle class="cls-2" cx="100" cy="100" r="87.14"/><g class="cls-3"><circle class="cls-4" cx="100" cy="100" r="100"/><circle class="cls-4" cx="100" cy="100" r="87.14"/></g><g id="Content_Writing" data-name="Content Writing"><path class="cls-5" d="M133.59,56c-.07,20.6-.14,32.93-.18,53.52a7.69,7.69,0,0,0,.37,2.34q3.43,10.34,6.93,20.63a6.33,6.33,0,0,0,.72,1.53c.53.75,1.21.75,1.73,0a8.94,8.94,0,0,0,.77-1.71c2-5.75,4-11.5,5.94-17.28a19.62,19.62,0,0,0,1.48-6.47c0-20.07.1-31.87.16-51.94,0-.26,0-.54,0-.66-6,0-11.95-.06-17.9-.09A.92.92,0,0,0,133.59,56Zm14.17,54-.4,1.22c-1,2.83-2,5.66-2.91,8.53-.21.61-.49.84-1,.81-.81,0-1.62,0-2.43,0a.91.91,0,0,1-.65-.48c-1.12-3.27-2.21-6.55-3.3-9.83a2.51,2.51,0,0,1,0-.27Z"/><path class="cls-6" d="M151.53,50.93l-17.87-.09a3.3,3.3,0,0,1-.06-.45c0-2.26,0-4.53,0-6.79,0-2.72,1.5-4.49,3.79-4.5q5.18,0,10.35,0c2.29,0,3.77,1.83,3.78,4.53C151.56,46.08,151.54,48.49,151.53,50.93Z"/><rect class="cls-7" x="44.44" y="62.92" width="79.64" height="9.61"/><rect class="cls-8" x="44.45" y="90.38" width="23.8" height="9.61"/><rect class="cls-9" x="77.41" y="90.38" width="46.69" height="9.61"/><rect class="cls-10" x="44.44" y="117.84" width="79.64" height="9.61"/><rect class="cls-11" x="81.07" y="145.3" width="70.48" height="9.61"/><rect class="cls-12" x="44.45" y="145.3" width="23.34" height="9.61"/></g></svg>