<svg xmlns="http://www.w3.org/2000/svg" xmlns:xlink="http://www.w3.org/1999/xlink" viewBox="0 0 1229 445"><defs><style>.cls-1{fill:url(#linear-gradient);}.cls-2{opacity:0.35;fill:url(#linear-gradient-2);}.cls-3{opacity:0.09;fill:url(#linear-gradient-3);}</style><linearGradient id="linear-gradient" x1="415.64" y1="719.69" x2="834.86" y2="-6.42" gradientUnits="userSpaceOnUse"><stop offset="0" stop-color="#fbc091"/><stop offset="1" stop-color="#ef5587"/></linearGradient><linearGradient id="linear-gradient-2" x1="423.33" y1="714.89" x2="831.09" y2="8.64" gradientTransform="matrix(-1, 0, 0, 1, 1260, 0)" gradientUnits="userSpaceOnUse"><stop offset="0" stop-color="#ef5587"/><stop offset="1" stop-color="#fbc091"/></linearGradient><linearGradient id="linear-gradient-3" x1="569.79" y1="716.69" x2="994.2" y2="-18.41" gradientTransform="translate(-216.51)" xlink:href="#linear-gradient-2"/></defs><title>pink_wave_divider2</title><g id="Layer_6" data-name="Layer 6"><path class="cls-1" d="M-61,281.5S-8.26,144.66,170.45,144.66,365.28,245.74,535.21,245.74,711,131.48,929.26,131.48s269.31,133.83,376.25,133.83V444.5H-61Z"/><path class="cls-2" d="M1305,302.14s-52.74-157.48-231.45-157.48S878.72,245.74,708.79,245.74,533,131.48,314.74,131.48,77.43,274.31-29.51,274.31V444.5H1305Z"/><path class="cls-3" d="M-109.51,271.14S-56.77,113.66,122,113.66,316.77,214.74,486.7,214.74,662.49,100.48,880.75,100.48,1124.06,243.31,1231,243.31V449.5H-109.51Z"/></g></svg>