<svg xmlns="http://www.w3.org/2000/svg" xmlns:xlink="http://www.w3.org/1999/xlink" viewBox="0 0 1366 394"><defs><style>.cls-1{opacity:0.1;}.cls-2,.cls-4,.cls-6,.cls-7{fill-rule:evenodd;}.cls-2{fill:url(#linear-gradient);}.cls-3{opacity:0.25;}.cls-4{fill:url(#linear-gradient-2);}.cls-5{opacity:0.5;}.cls-6{fill:url(#linear-gradient-3);}.cls-7{fill:url(#linear-gradient-4);}</style><linearGradient id="linear-gradient" x1="315.64" y1="1147.73" x2="1054.03" y2="-131.2" gradientUnits="userSpaceOnUse"><stop offset="0" stop-color="#fbc091"/><stop offset="1" stop-color="#ef5587"/></linearGradient><linearGradient id="linear-gradient-2" x1="376.69" y1="957.98" x2="992.97" y2="-109.45" xlink:href="#linear-gradient"/><linearGradient id="linear-gradient-3" x1="423.12" y1="831.79" x2="946.55" y2="-74.81" xlink:href="#linear-gradient"/><linearGradient id="linear-gradient-4" x1="479.15" y1="680.14" x2="890.51" y2="-32.35" xlink:href="#linear-gradient"/></defs><title>wave_type_2</title><g id="Layer_4" data-name="Layer 4"><g class="cls-1"><path class="cls-2" d="M1366,48.92V965.5H0V57.39C35.09,64.73,72,58.58,104.08,39,145.22,13.77,192.38-.5,242.45-.5S339.69,13.77,380.83,39c46.76,28.58,103.58,28.58,150.34,0C572.31,13.77,619.47-.5,669.55-.5S766.78,13.77,807.92,39c46.76,28.58,103.58,28.58,150.35,0C999.4,13.77,1046.56-.5,1096.64-.5S1193.87,13.77,1235,39C1275.48,63.69,1323.49,67,1366,48.92Z"/></g><g class="cls-3"><path class="cls-4" d="M1366,105.92V740.5H0V114.39c35.09,7.34,72,1.19,104.08-18.44,41.14-25.18,88.3-39.45,138.37-39.45S339.69,70.77,380.83,96c46.76,28.58,103.58,28.58,150.34,0,41.14-25.18,88.3-39.45,138.38-39.45S766.78,70.77,807.92,96c46.76,28.58,103.58,28.58,150.35,0,41.13-25.18,88.29-39.45,138.37-39.45S1193.87,70.77,1235,96C1275.48,120.69,1323.49,124,1366,105.92Z"/></g><g class="cls-5"><path class="cls-6" d="M1366,167.36V587.5H0V175.83c35.09,7.34,72,1.19,104.08-18.44,41.14-25.18,88.3-39.45,138.37-39.45s97.24,14.27,138.38,39.45c46.76,28.58,103.58,28.58,150.34,0,41.14-25.18,88.3-39.45,138.38-39.45s97.23,14.27,138.37,39.45c46.76,28.58,103.58,28.58,150.35,0,41.13-25.18,88.29-39.45,138.37-39.45s97.23,14.27,138.37,39.45C1275.48,182.13,1323.49,185.45,1366,167.36Z"/></g><path class="cls-7" d="M1366,242.17V403.5H0V250.64c35.09,7.34,72,1.19,104.08-18.44,41.14-25.17,88.3-39.45,138.37-39.45S339.69,207,380.83,232.2c46.76,28.58,103.58,28.58,150.34,0,41.14-25.17,88.3-39.45,138.38-39.45S766.78,207,807.92,232.2c46.76,28.58,103.58,28.58,150.35,0,41.13-25.17,88.29-39.45,138.37-39.45S1193.87,207,1235,232.2C1275.48,256.94,1323.49,260.26,1366,242.17Z"/></g></svg>