<svg xmlns="http://www.w3.org/2000/svg" xmlns:xlink="http://www.w3.org/1999/xlink" viewBox="0 0 1415.01 219.04"><defs><style>.cls-1{fill:url(#linear-gradient);}.cls-2{opacity:0.44;fill:url(#linear-gradient-2);}.cls-3{opacity:0.09;fill:url(#linear-gradient-3);}</style><linearGradient id="linear-gradient" x1="442.7" y1="515.33" x2="807.8" y2="-117.04" gradientUnits="userSpaceOnUse"><stop offset="0" stop-color="#fbc091"/><stop offset="1" stop-color="#ef5587"/></linearGradient><linearGradient id="linear-gradient-2" x1="450.83" y1="508.79" x2="803.59" y2="-102.23" gradientTransform="matrix(-1, 0, 0, 1, 1260, 0)" gradientUnits="userSpaceOnUse"><stop offset="0" stop-color="#ef5587"/><stop offset="1" stop-color="#fbc091"/></linearGradient><linearGradient id="linear-gradient-3" x1="602.83" y1="477.79" x2="955.59" y2="-133.23" gradientTransform="translate(-216.51)" xlink:href="#linear-gradient-2"/></defs><title>pink_wave_divider</title><g id="Layer_6" data-name="Layer 6"><path class="cls-1" d="M-61,186.5S-8.26,49.66,170.45,49.66,365.28,150.74,535.21,150.74,711,36.48,929.26,36.48s269.31,133.83,376.25,133.83v54.21H-61Z" transform="translate(109.51 -5.48)"/><path class="cls-2" d="M1305,207.14S1252.26,49.66,1073.55,49.66,878.72,150.74,708.79,150.74,533,36.48,314.74,36.48,77.43,179.31-29.51,179.31v43.21H1305Z" transform="translate(109.51 -5.48)"/><path class="cls-3" d="M-109.51,176.14S-56.77,18.66,122,18.66,316.77,119.74,486.7,119.74,662.49,5.48,880.75,5.48,1118.06,148.31,1225,148.31v43.21H-109.51Z" transform="translate(109.51 -5.48)"/></g></svg>